<svg width="25" height="25" viewBox="0 0 25 25" fill="none" xmlns="http://www.w3.org/2000/svg">
<g clip-path="url(#clip0_1_587)">
<path d="M21.0439 18.9518C21.0439 19.4399 20.6483 19.8356 20.1602 19.8356H3.92767C3.4396 19.8356 3.04395 19.4399 3.04395 18.9518C3.04395 18.4638 3.4396 18.0681 3.92767 18.0681H3.94395V11.9095C3.94395 7.50147 7.57095 3.92859 12.0439 3.92859C16.5169 3.92859 20.1439 7.50147 20.1439 11.9095V18.0681H20.1602C20.6483 18.0681 21.0439 18.4638 21.0439 18.9518ZM5.74395 18.0681H18.3439V11.9095C18.3439 8.47798 15.5233 5.69603 12.0439 5.69603C8.56455 5.69603 5.74395 8.47798 5.74395 11.9095V18.0681ZM10.02 21.6844C9.77516 21.1894 10.2417 20.7193 10.7939 20.7193H13.2939C13.8462 20.7193 14.3127 21.1894 14.0679 21.6844C13.9595 21.9037 13.8138 22.1059 13.6349 22.2815C13.213 22.6958 12.6407 22.9286 12.0439 22.9286C11.4472 22.9286 10.8749 22.6958 10.453 22.2815C10.2741 22.1059 10.1284 21.9037 10.02 21.6844Z" fill="#FCFCFD"/>
</g>
<defs>
<clipPath id="clip0_1_587">
<rect width="24" height="24" fill="white" transform="translate(0.0439453 0.928589)"/>
</clipPath>
</defs>
</svg>
