<svg width="17" height="16" viewBox="0 0 17 16" fill="none" xmlns="http://www.w3.org/2000/svg">
<path d="M4.67719 8.39958C4.66092 8.68939 4.75782 8.97396 4.94661 9.19075C5.13539 9.40755 5.40062 9.53883 5.68401 9.55577H5.74241C5.95112 9.55553 6.15519 9.49281 6.32945 9.37534C6.5037 9.25787 6.64051 9.09079 6.72298 8.89473C6.80545 8.69867 6.82998 8.4822 6.79353 8.27205C6.75709 8.0619 6.66127 7.86726 6.5179 7.71215C6.37454 7.55705 6.18989 7.44826 5.98677 7.39923C5.78364 7.35019 5.57091 7.36305 5.37485 7.43622C5.17879 7.50939 5.00797 7.63967 4.88347 7.81097C4.75897 7.98227 4.68625 8.1871 4.67427 8.40017L4.67719 8.39958Z" fill="#FCFCFD"/>
<path d="M0.691973 8.1225C0.623839 8.1186 0.556103 8.13544 0.497327 8.1709C0.43855 8.20635 0.39137 8.25883 0.36175 8.3217C0.33213 8.38456 0.321399 8.455 0.330912 8.5241C0.340426 8.59321 0.369758 8.65787 0.4152 8.70993C0.460643 8.76199 0.520158 8.79911 0.586222 8.81659C0.652287 8.83407 0.721937 8.83114 0.78637 8.80815C0.850802 8.78517 0.907126 8.74316 0.948222 8.68745C0.989319 8.63174 1.01334 8.56483 1.01726 8.49516C1.01994 8.44882 1.01365 8.4024 0.998732 8.35856C0.983817 8.31472 0.960579 8.27432 0.930352 8.2397C0.900126 8.20507 0.863506 8.17689 0.822597 8.15678C0.781688 8.13666 0.737297 8.12501 0.691973 8.1225Z" fill="#FCFCFD"/>
<path d="M4.60945 2.05672C4.67013 2.02485 4.72024 1.97534 4.75346 1.91441C4.78669 1.85349 4.80155 1.78387 4.79617 1.71433C4.79078 1.64479 4.76541 1.57843 4.72322 1.52361C4.68104 1.46878 4.62394 1.42794 4.55912 1.40623C4.49429 1.38452 4.42463 1.38291 4.3589 1.40159C4.29318 1.42028 4.23433 1.45843 4.18977 1.51124C4.1452 1.56406 4.11691 1.62917 4.10845 1.6984C4.1 1.76762 4.11175 1.83785 4.14225 1.90025C4.16274 1.94202 4.19112 1.97923 4.22575 2.00973C4.26037 2.04023 4.30056 2.06342 4.34399 2.07796C4.38742 2.09251 4.43323 2.09812 4.47879 2.09447C4.52435 2.09083 4.56876 2.078 4.60945 2.05672Z" fill="#FCFCFD"/>
<path d="M5.69393 3.99047C5.78818 3.94186 5.86621 3.86576 5.91817 3.7718C5.97012 3.67784 5.99367 3.57024 5.98583 3.4626C5.978 3.35495 5.93913 3.2521 5.87414 3.16705C5.80915 3.08199 5.72096 3.01855 5.62072 2.98474C5.52047 2.95093 5.41268 2.94828 5.31096 2.97711C5.20924 3.00594 5.11816 3.06496 5.04924 3.14672C4.98032 3.22848 4.93665 3.32929 4.92375 3.43642C4.91086 3.54356 4.92931 3.65219 4.97678 3.7486C5.00832 3.81266 5.05189 3.86973 5.10501 3.91655C5.15813 3.96338 5.21975 3.99904 5.28635 4.0215C5.35295 4.04396 5.42322 4.05278 5.49316 4.04746C5.56309 4.04214 5.63132 4.02277 5.69393 3.99047Z" fill="#FCFCFD"/>
<path d="M2.04452 5.32042C2.11721 5.36931 2.20245 5.39504 2.28945 5.39437C2.37645 5.39371 2.4613 5.36666 2.53326 5.31667C2.60522 5.26667 2.66107 5.19597 2.69373 5.11351C2.72639 5.03104 2.7344 4.94053 2.71674 4.85341C2.69908 4.7663 2.65655 4.68649 2.59452 4.6241C2.5325 4.56171 2.45377 4.51954 2.3683 4.50291C2.28284 4.48629 2.19447 4.49597 2.11438 4.53072C2.03429 4.56547 1.96607 4.62373 1.91837 4.69814C1.85449 4.79779 1.83189 4.91929 1.85554 5.03597C1.87919 5.15265 1.94716 5.25495 2.04452 5.32042Z" fill="#FCFCFD"/>
<path d="M2.69451 7.9236C2.58913 7.91752 2.48435 7.94352 2.39342 7.99832C2.30249 8.05312 2.22949 8.13426 2.18364 8.23148C2.1378 8.3287 2.12117 8.43764 2.13585 8.54452C2.15054 8.65141 2.19588 8.75144 2.26615 8.83198C2.33642 8.91251 2.42846 8.96994 2.53063 8.99699C2.63281 9.02405 2.74054 9.01952 2.8402 8.98398C2.93986 8.94844 3.02698 8.88348 3.09055 8.79732C3.15412 8.71116 3.19128 8.60766 3.19733 8.4999C3.20531 8.35531 3.15683 8.2134 3.06255 8.10534C2.96826 7.99728 2.83589 7.93191 2.69451 7.9236Z" fill="#FCFCFD"/>
<path d="M2.10292 11.5934C2.02531 11.6335 1.96107 11.6962 1.91832 11.7737C1.87557 11.8511 1.85624 11.9398 1.86276 12.0284C1.86927 12.1171 1.90136 12.2018 1.95494 12.2719C2.00853 12.3419 2.08122 12.3941 2.16382 12.4219C2.24642 12.4497 2.33523 12.4518 2.41901 12.428C2.50279 12.4042 2.57779 12.3555 2.63453 12.2881C2.69126 12.2208 2.72719 12.1377 2.73776 12.0494C2.74833 11.9611 2.73308 11.8717 2.69392 11.7923C2.66791 11.7395 2.63198 11.6925 2.58819 11.6539C2.5444 11.6154 2.49361 11.586 2.43872 11.5676C2.38383 11.5491 2.32593 11.5419 2.26831 11.5463C2.21069 11.5507 2.15449 11.5667 2.10292 11.5934Z" fill="#FCFCFD"/>
<path d="M4.17787 6.79553C4.28181 6.86519 4.40362 6.90177 4.52789 6.90064C4.65216 6.89951 4.77331 6.86073 4.87603 6.78919C4.97875 6.71765 5.05841 6.61658 5.10496 6.49874C5.1515 6.3809 5.16283 6.2516 5.13752 6.12718C5.11221 6.00276 5.05138 5.88881 4.96274 5.79973C4.8741 5.71066 4.76162 5.65047 4.63953 5.62676C4.51744 5.60305 4.39121 5.6169 4.27681 5.66655C4.16241 5.7162 4.06498 5.79942 3.99683 5.90569C3.95149 5.97625 3.92021 6.05526 3.90477 6.13819C3.88934 6.22113 3.89005 6.30636 3.90686 6.38901C3.92368 6.47167 3.95627 6.55012 4.00277 6.61987C4.04928 6.68963 4.10878 6.74932 4.17787 6.79553Z" fill="#FCFCFD"/>
<path d="M10.7607 3.94749C10.8492 4.00652 10.9529 4.0374 11.0585 4.03621C11.1642 4.03503 11.2671 4.00184 11.3543 3.94084C11.4415 3.87984 11.5091 3.79377 11.5485 3.6935C11.5879 3.59323 11.5973 3.48328 11.5756 3.37753C11.5539 3.27178 11.502 3.17499 11.4265 3.09938C11.351 3.02378 11.2553 2.97277 11.1515 2.95278C11.0476 2.9328 10.9403 2.94475 10.8431 2.98712C10.7459 3.02949 10.6632 3.10038 10.6054 3.19083C10.5669 3.2509 10.5404 3.31816 10.5273 3.38874C10.5143 3.45932 10.515 3.53184 10.5295 3.60213C10.5439 3.67242 10.5718 3.73911 10.6114 3.79838C10.6511 3.85764 10.7018 3.90831 10.7607 3.94749Z" fill="#FCFCFD"/>
<path d="M11.8563 2.01959C11.9135 2.05794 11.9805 2.07807 12.0489 2.07744C12.1173 2.07681 12.184 2.05545 12.2405 2.01606C12.2971 1.97667 12.3409 1.92102 12.3665 1.85615C12.392 1.79129 12.3982 1.72012 12.3843 1.65165C12.3703 1.58318 12.3368 1.52049 12.2879 1.47151C12.2391 1.42253 12.1772 1.38947 12.1099 1.37649C12.0427 1.36352 11.9733 1.37123 11.9103 1.39864C11.8474 1.42605 11.7939 1.47193 11.7564 1.53048C11.7063 1.6089 11.6887 1.70446 11.7074 1.79617C11.7261 1.88787 11.7797 1.96823 11.8563 2.01959Z" fill="#FCFCFD"/>
<path d="M10.8448 7.35922C10.7047 7.35099 10.5643 7.37106 10.4317 7.4183C10.2992 7.46554 10.177 7.53902 10.0722 7.63454C9.86054 7.82746 9.7325 8.09845 9.71624 8.38791C9.69997 8.67736 9.79682 8.96157 9.98547 9.178C10.1741 9.39444 10.4391 9.52538 10.7222 9.54201C10.7426 9.54201 10.7636 9.54201 10.7841 9.54201C10.9903 9.5419 11.192 9.4808 11.365 9.36608C11.538 9.25135 11.6749 9.08789 11.7591 8.89541C11.8433 8.70293 11.8713 8.48966 11.8396 8.2813C11.8079 8.07294 11.718 7.8784 11.5807 7.72113C11.4876 7.61387 11.3747 7.52663 11.2483 7.46449C11.122 7.40236 10.9848 7.36657 10.8448 7.35922Z" fill="#FCFCFD"/>
<path d="M6.04492 6.71968C6.13364 6.90093 6.27008 7.05326 6.43888 7.15951C6.60768 7.26576 6.80213 7.32171 7.00034 7.32106C7.18308 7.32111 7.36279 7.27325 7.5223 7.18208C7.68182 7.0909 7.81582 6.95944 7.91152 6.80024C8.00722 6.64104 8.06143 6.45942 8.06897 6.27271C8.07652 6.08599 8.03714 5.90042 7.9546 5.73369C7.86526 5.55326 7.72856 5.40183 7.55982 5.29635C7.39107 5.19087 7.19694 5.13552 6.99917 5.13649C6.817 5.1368 6.63792 5.18471 6.47892 5.27567C6.31993 5.36663 6.18631 5.49762 6.09071 5.65621C5.99512 5.8148 5.94074 5.99574 5.93273 6.18186C5.92471 6.36798 5.96333 6.55311 6.04492 6.71968Z" fill="#FCFCFD"/>
<path d="M14.4253 5.31918C14.5029 5.27913 14.5672 5.21644 14.61 5.13904C14.6528 5.06164 14.6722 4.97301 14.6657 4.88434C14.6593 4.79567 14.6273 4.71095 14.5738 4.64088C14.5202 4.57081 14.4476 4.51854 14.365 4.49067C14.2825 4.46281 14.1937 4.4606 14.1099 4.48432C14.0261 4.50804 13.951 4.55663 13.8942 4.62395C13.8374 4.69128 13.8014 4.7743 13.7908 4.86254C13.7801 4.95079 13.7953 5.04028 13.8343 5.11972C13.8869 5.22626 13.9786 5.30712 14.0895 5.34452C14.2003 5.38192 14.3211 5.37281 14.4253 5.31918Z" fill="#FCFCFD"/>
<path d="M11.715 5.66739C11.604 5.72456 11.512 5.81411 11.4508 5.9247C11.3896 6.0353 11.3618 6.16198 11.371 6.28873C11.3801 6.41547 11.4258 6.53659 11.5023 6.63677C11.5788 6.73694 11.6826 6.81168 11.8007 6.85151C11.9187 6.89135 12.0456 6.89451 12.1654 6.86059C12.2851 6.82666 12.3924 6.75718 12.4735 6.66092C12.5547 6.56467 12.6061 6.44596 12.6213 6.31982C12.6365 6.19368 12.6148 6.06577 12.5589 5.95226C12.5218 5.87684 12.4706 5.80963 12.4081 5.75448C12.3456 5.69933 12.2731 5.65733 12.1947 5.63087C12.1163 5.60441 12.0336 5.59402 11.9513 5.60028C11.869 5.60655 11.7887 5.62936 11.715 5.66739Z" fill="#FCFCFD"/>
<path d="M8.22382 1.85484C8.31067 1.8599 8.39704 1.8385 8.47199 1.79336C8.54695 1.74821 8.60712 1.68135 8.64491 1.60123C8.6827 1.5211 8.69641 1.43132 8.68429 1.34323C8.67217 1.25514 8.63478 1.1727 8.57684 1.10635C8.5189 1.04 8.44302 0.992708 8.35879 0.970464C8.27456 0.948219 8.18578 0.952019 8.10367 0.981383C8.02155 1.01075 7.9498 1.06436 7.89749 1.13543C7.84517 1.2065 7.81464 1.29184 7.80977 1.38066C7.80323 1.49968 7.84317 1.61648 7.92081 1.70539C7.99845 1.79431 8.10744 1.84806 8.22382 1.85484Z" fill="#FCFCFD"/>
<path d="M8.21915 4.68493C8.3432 4.69205 8.46653 4.66139 8.57355 4.59685C8.68057 4.5323 8.76647 4.43676 8.82041 4.3223C8.87435 4.20784 8.89389 4.0796 8.87657 3.95378C8.85925 3.82797 8.80585 3.71023 8.72312 3.61544C8.64038 3.52065 8.53202 3.45307 8.41174 3.42125C8.29145 3.38942 8.16464 3.39477 8.04733 3.43662C7.93002 3.47847 7.82747 3.55495 7.75265 3.65639C7.67783 3.75782 7.6341 3.87966 7.62697 4.00651C7.61757 4.17677 7.67467 4.34388 7.78571 4.47109C7.89676 4.59831 8.05266 4.67523 8.21915 4.68493Z" fill="#FCFCFD"/>
<path d="M4.81443 11.2447C4.92542 11.1875 5.01732 11.0979 5.07851 10.9873C5.13969 10.8766 5.16742 10.7499 5.15819 10.6232C5.14895 10.4964 5.10316 10.3753 5.02662 10.2752C4.95007 10.175 4.8462 10.1003 4.72815 10.0606C4.61009 10.0208 4.48316 10.0177 4.3634 10.0518C4.24364 10.0858 4.13643 10.1553 4.05533 10.2517C3.97424 10.348 3.9229 10.4667 3.90781 10.5929C3.89271 10.7191 3.91455 10.847 3.97055 10.9604C4.04562 11.1125 4.17669 11.2279 4.33494 11.2812C4.49318 11.3346 4.66566 11.3214 4.81443 11.2447Z" fill="#FCFCFD"/>
<path d="M8.62503 5.62255C8.4947 5.82594 8.43443 6.06796 8.45374 6.31032C8.47306 6.55269 8.57086 6.78154 8.73168 6.96066C8.89249 7.13978 9.10713 7.25894 9.34162 7.29929C9.57611 7.33963 9.81706 7.29885 10.0263 7.1834C10.2356 7.06795 10.4013 6.88442 10.4971 6.66187C10.5929 6.43931 10.6134 6.19044 10.5553 5.95464C10.4972 5.71884 10.3639 5.50958 10.1764 5.35997C9.98898 5.21037 9.75809 5.12897 9.5203 5.12866C9.34271 5.12854 9.16789 5.17362 9.0116 5.25984C8.8553 5.34606 8.72245 5.47071 8.62503 5.62255Z" fill="#FCFCFD"/>
<path d="M10.4833 10.193C10.3977 10.0193 10.2683 9.87219 10.1085 9.76676C9.94875 9.66132 9.76436 9.60139 9.57437 9.59315C9.38438 9.5849 9.19568 9.62865 9.02774 9.71987C8.8598 9.81109 8.7187 9.94648 8.619 10.1121C8.51931 10.2777 8.46462 10.4675 8.46059 10.6619C8.45656 10.8563 8.50333 11.0483 8.59607 11.2181C8.68881 11.3878 8.82417 11.5292 8.98818 11.6276C9.15219 11.726 9.3389 11.7779 9.52906 11.7779C9.69635 11.7768 9.86108 11.7359 10.0103 11.6585C10.2626 11.5279 10.4541 11.3003 10.5428 11.0256C10.6314 10.7509 10.61 10.4515 10.4833 10.193Z" fill="#FCFCFD"/>
<path d="M12.351 10.1165C12.2471 10.0468 12.1253 10.0101 12.001 10.0111C11.8767 10.0122 11.7555 10.0509 11.6528 10.1223C11.55 10.1938 11.4702 10.2948 11.4236 10.4126C11.377 10.5304 11.3656 10.6597 11.3908 10.7842C11.416 10.9086 11.4768 11.0226 11.5654 11.1118C11.654 11.2009 11.7664 11.2612 11.8885 11.2849C12.0106 11.3087 12.1369 11.2949 12.2513 11.2454C12.3657 11.1958 12.4632 11.1126 12.5314 11.0063C12.6226 10.8638 12.6547 10.6901 12.6209 10.5233C12.5871 10.3565 12.49 10.2103 12.351 10.1165Z" fill="#FCFCFD"/>
<path d="M14.3973 8.47479C14.4032 8.36703 14.3778 8.25988 14.3242 8.1669C14.2706 8.07391 14.1913 7.99926 14.0962 7.95238C14.0011 7.90549 13.8946 7.88849 13.7901 7.9035C13.6856 7.91852 13.5877 7.96489 13.509 8.03675C13.4302 8.1086 13.3741 8.20272 13.3476 8.30721C13.3212 8.4117 13.3256 8.52186 13.3603 8.62378C13.3951 8.72569 13.4586 8.81478 13.5429 8.87978C13.6271 8.94479 13.7284 8.98279 13.8337 8.98898C13.9751 8.99714 14.1139 8.94756 14.2196 8.85115C14.3252 8.75473 14.3892 8.61937 14.3973 8.47479Z" fill="#FCFCFD"/>
<path d="M15.876 8.08603C15.8077 8.08201 15.7398 8.09879 15.6809 8.13423C15.6219 8.16967 15.5746 8.2222 15.5448 8.28516C15.5151 8.34811 15.5042 8.41868 15.5137 8.48793C15.5232 8.55719 15.5525 8.62201 15.598 8.67422C15.6435 8.72642 15.7031 8.76365 15.7693 8.78121C15.8355 8.79877 15.9053 8.79586 15.9699 8.77286C16.0344 8.74985 16.0909 8.70778 16.1321 8.65196C16.1733 8.59615 16.1973 8.5291 16.2013 8.45929C16.2064 8.36572 16.175 8.2739 16.114 8.20394C16.0531 8.13397 15.9675 8.09158 15.876 8.08603Z" fill="#FCFCFD"/>
<path d="M14.4837 11.5917C14.411 11.543 14.3257 11.5174 14.2388 11.5182C14.1518 11.519 14.0671 11.5462 13.9952 11.5962C13.9233 11.6463 13.8676 11.717 13.835 11.7995C13.8025 11.8819 13.7945 11.9724 13.8122 12.0595C13.83 12.1465 13.8725 12.2263 13.9345 12.2886C13.9966 12.3509 14.0753 12.3931 14.1607 12.4097C14.2461 12.4263 14.3344 12.4166 14.4145 12.3819C14.4946 12.3471 14.5627 12.2889 14.6105 12.2146C14.6421 12.1652 14.664 12.1099 14.6748 12.0518C14.6856 11.9938 14.6851 11.9341 14.6733 11.8763C14.6615 11.8184 14.6387 11.7635 14.6062 11.7147C14.5737 11.6659 14.5321 11.6241 14.4837 11.5917Z" fill="#FCFCFD"/>
<path d="M4.67252 14.8924C4.61535 14.8541 4.54835 14.8339 4.47998 14.8345C4.41162 14.8351 4.34495 14.8564 4.28842 14.8957C4.23188 14.935 4.18802 14.9906 4.16237 15.0554C4.13672 15.1202 4.13043 15.1913 4.14431 15.2598C4.15819 15.3282 4.19161 15.391 4.24034 15.44C4.28907 15.489 4.35093 15.5222 4.41809 15.5353C4.48525 15.5484 4.5547 15.5408 4.61766 15.5136C4.68062 15.4863 4.73426 15.4406 4.7718 15.3821C4.79673 15.3433 4.81395 15.2999 4.82245 15.2542C4.83096 15.2086 4.83059 15.1617 4.82137 15.1162C4.81215 15.0708 4.79426 15.0276 4.76872 14.9892C4.74318 14.9508 4.71049 14.9179 4.67252 14.8924Z" fill="#FCFCFD"/>
<path d="M11.9188 14.8554C11.8577 14.8869 11.8072 14.9362 11.7735 14.997C11.7398 15.0579 11.7246 15.1276 11.7296 15.1974C11.7347 15.2671 11.7599 15.3337 11.802 15.3888C11.8441 15.4439 11.9012 15.485 11.9662 15.5069C12.0311 15.5288 12.101 15.5305 12.1669 15.5118C12.2328 15.4931 12.2917 15.4548 12.3364 15.4018C12.381 15.3489 12.4093 15.2835 12.4176 15.2141C12.4259 15.1447 12.4139 15.0743 12.3831 15.0119C12.3627 14.9704 12.3345 14.9334 12.3001 14.9031C12.2657 14.8727 12.2258 14.8497 12.1827 14.8351C12.1396 14.8206 12.094 14.8149 12.0488 14.8184C12.0035 14.8219 11.9593 14.8345 11.9188 14.8554Z" fill="#FCFCFD"/>
<path d="M7.90321 11.2877C8.03355 11.0843 8.09382 10.8422 8.07449 10.5999C8.05515 10.3575 7.95732 10.1286 7.79646 9.94949C7.63561 9.77037 7.42092 9.65123 7.1864 9.61094C6.95187 9.57064 6.7109 9.61148 6.50164 9.727C6.29237 9.84252 6.12676 10.0261 6.03102 10.2487C5.93528 10.4713 5.91488 10.7203 5.97305 10.9561C6.03123 11.1919 6.16465 11.4011 6.35219 11.5506C6.53974 11.7001 6.7707 11.7814 7.00852 11.7816C7.18611 11.7822 7.36104 11.7373 7.51732 11.6511C7.6736 11.5648 7.80626 11.4399 7.90321 11.2877Z" fill="#FCFCFD"/>
<path d="M5.76752 12.9653C5.6792 12.9062 5.57572 12.8752 5.47018 12.8762C5.36463 12.8773 5.26176 12.9103 5.17456 12.9711C5.08736 13.0319 5.01975 13.1178 4.98027 13.2179C4.94079 13.318 4.93122 13.4278 4.95277 13.5335C4.97432 13.6392 5.02601 13.7359 5.10132 13.8115C5.17663 13.8872 5.27218 13.9383 5.37588 13.9584C5.47958 13.9785 5.58678 13.9667 5.68393 13.9245C5.78109 13.8823 5.86383 13.8116 5.9217 13.7213C5.99921 13.6002 6.02651 13.4525 5.9976 13.3107C5.9687 13.1689 5.88594 13.0447 5.76752 12.9653Z" fill="#FCFCFD"/>
<path d="M8.25945 15.0572C8.17262 15.0522 8.08629 15.0736 8.01135 15.1187C7.93641 15.1638 7.87624 15.2307 7.83844 15.3107C7.80064 15.3908 7.78691 15.4806 7.79898 15.5687C7.81106 15.6567 7.8484 15.7392 7.90628 15.8055C7.96416 15.8719 8.03999 15.9192 8.12417 15.9415C8.20835 15.9638 8.29711 15.9601 8.37923 15.9308C8.46135 15.9016 8.53313 15.8481 8.58551 15.7771C8.63789 15.7061 8.66851 15.6208 8.6735 15.532C8.67682 15.473 8.66874 15.414 8.64972 15.3582C8.6307 15.3024 8.60112 15.251 8.56267 15.2069C8.52422 15.1628 8.47765 15.1269 8.42562 15.1012C8.37359 15.0755 8.31713 15.0606 8.25945 15.0572Z" fill="#FCFCFD"/>
<path d="M8.26412 12.2276C8.13996 12.2199 8.01635 12.25 7.90895 12.3142C7.80156 12.3784 7.7152 12.4737 7.66083 12.5881C7.60646 12.7025 7.58651 12.8309 7.60352 12.9569C7.62052 13.0829 7.67372 13.2009 7.75636 13.296C7.83901 13.391 7.94738 13.4589 8.06776 13.4909C8.18815 13.523 8.31511 13.5177 8.43259 13.4759C8.55006 13.4341 8.65276 13.3576 8.72767 13.256C8.80257 13.1544 8.84632 13.0324 8.85337 12.9055C8.86295 12.7357 8.80629 12.569 8.69582 12.4419C8.58534 12.3149 8.43009 12.2378 8.26412 12.2276Z" fill="#FCFCFD"/>
<path d="M10.8343 12.9216C10.74 12.9705 10.662 13.047 10.6102 13.1412C10.5584 13.2355 10.5352 13.3434 10.5433 13.4512C10.5515 13.559 10.5908 13.6619 10.6562 13.7469C10.7216 13.8318 10.8102 13.8951 10.9107 13.9285C11.0113 13.962 11.1193 13.9642 11.221 13.9349C11.3228 13.9055 11.4138 13.846 11.4825 13.7638C11.5511 13.6815 11.5944 13.5803 11.6068 13.4729C11.6192 13.3655 11.6001 13.2568 11.552 13.1605C11.5203 13.0966 11.4766 13.0397 11.4233 12.9931C11.37 12.9464 11.3083 12.911 11.2416 12.8888C11.175 12.8666 11.1047 12.8581 11.0348 12.8637C10.9649 12.8694 10.8968 12.889 10.8343 12.9216Z" fill="#FCFCFD"/>
</svg>
