<svg width="24" height="25" viewBox="0 0 24 25" fill="none" xmlns="http://www.w3.org/2000/svg">
<path d="M2.5 14.1685V12.4385C2.5 10.3685 4.18999 8.67847 6.25999 8.67847H17.74C19.81 8.67847 21.5 10.3685 21.5 12.4385V13.8785H19.48C18.92 13.8785 18.41 14.0985 18.04 14.4785C17.62 14.8885 17.38 15.4785 17.44 16.1085C17.53 17.1885 18.52 17.9785 19.6 17.9785H21.5V19.1685C21.5 21.2385 19.81 22.9285 17.74 22.9285H12.26" stroke="#777E90" stroke-width="1.5" stroke-linecap="round" stroke-linejoin="round"/>
<path d="M2.5 13.3385V8.76857C2.5 7.57857 3.23 6.51853 4.34 6.09853L12.28 3.09853C13.52 2.62853 14.85 3.54856 14.85 4.87856V8.67854" stroke="#777E90" stroke-width="1.5" stroke-linecap="round" stroke-linejoin="round"/>
<path d="M22.5588 14.8987V16.9588C22.5588 17.5088 22.1188 17.9588 21.5588 17.9788H19.5988C18.5188 17.9788 17.5288 17.1888 17.4388 16.1088C17.3788 15.4788 17.6188 14.8888 18.0388 14.4788C18.4088 14.0988 18.9188 13.8788 19.4788 13.8788H21.5588C22.1188 13.8988 22.5588 14.3487 22.5588 14.8987Z" stroke="#777E90" stroke-width="1.5" stroke-linecap="round" stroke-linejoin="round"/>
<path d="M7 12.9286H14" stroke="#777E90" stroke-width="1.5" stroke-linecap="round" stroke-linejoin="round"/>
<path d="M3 17.4286H8.34C8.98 17.4286 9.5 17.9486 9.5 18.5886V19.8686" stroke="#777E90" stroke-width="1.5" stroke-miterlimit="10" stroke-linecap="round" stroke-linejoin="round"/>
<path d="M4.22 16.2086L3 17.4286L4.22 18.6486" stroke="#777E90" stroke-width="1.5" stroke-miterlimit="10" stroke-linecap="round" stroke-linejoin="round"/>
<path d="M9.5 22.7086H4.16C3.52 22.7086 3 22.1885 3 21.5485V20.2686" stroke="#777E90" stroke-width="1.5" stroke-miterlimit="10" stroke-linecap="round" stroke-linejoin="round"/>
<path d="M8.28125 23.9289L9.50125 22.7089L8.28125 21.4889" stroke="#777E90" stroke-width="1.5" stroke-miterlimit="10" stroke-linecap="round" stroke-linejoin="round"/>
</svg>
