<svg width="16" height="14" viewBox="0 0 16 14" fill="none" xmlns="http://www.w3.org/2000/svg">
<path d="M11.6191 4.33926C11.3424 4.17553 10.9826 4.17553 10.6783 4.33926L8.51982 5.59452L7.05321 6.41319L4.89482 7.66842C4.61809 7.83214 4.25836 7.83214 3.95397 7.66842L2.23831 6.68602C1.96159 6.5223 1.76788 6.22216 1.76788 5.89469V3.95723C1.76788 3.62977 1.93392 3.3296 2.23831 3.16587L3.92629 2.21078C4.20302 2.04706 4.56275 2.04706 4.86714 2.21078L6.55514 3.16587C6.83184 3.3296 7.02556 3.62977 7.02556 3.95723V5.21249L8.49217 4.36655V3.1113C8.49217 2.78383 8.32616 2.48366 8.02175 2.31993L4.89482 0.518915C4.61809 0.355186 4.25836 0.355186 3.95397 0.518915L0.771693 2.31993C0.467301 2.48366 0.30127 2.78383 0.30127 3.1113V6.74063C0.30127 7.06808 0.467301 7.36828 0.771693 7.532L3.95397 9.33302C4.23068 9.49674 4.59043 9.49674 4.89482 9.33302L7.05321 8.10503L8.51982 7.25911L10.6783 6.03113C10.955 5.8674 11.3147 5.8674 11.6191 6.03113L13.3071 6.98622C13.5838 7.14994 13.7775 7.45014 13.7775 7.77759V9.71502C13.7775 10.0425 13.6115 10.3427 13.3071 10.5064L11.6191 11.4888C11.3424 11.6525 10.9826 11.6525 10.6783 11.4888L8.99029 10.5337C8.71354 10.37 8.51982 10.0698 8.51982 9.74232V8.48709L7.05321 9.33302V10.5882C7.05321 10.9157 7.21928 11.2159 7.52363 11.3796L10.7059 13.1806C10.9826 13.3444 11.3424 13.3444 11.6468 13.1806L14.8291 11.3796C15.1058 11.2159 15.2995 10.9157 15.2995 10.5882V6.95891C15.2995 6.63146 15.1334 6.33132 14.8291 6.1676L11.6191 4.33926Z" fill="#FCFCFD"/>
</svg>
