<svg width="20" height="16" viewBox="0 0 20 16" fill="none" xmlns="http://www.w3.org/2000/svg">
<path fill-rule="evenodd" clip-rule="evenodd" d="M19.2675 8.04323L19.2636 8.25099L19.2394 8.41506L19.1947 8.5813L19.1546 8.68711L19.0815 8.83567L18.9989 8.9652L18.8826 9.10751L18.7709 9.21601L12.0992 15.0324C11.4939 15.5601 10.5754 15.4972 10.0476 14.8919C9.56049 14.3331 9.57662 13.5075 10.0581 12.9687L10.1881 12.8403L13.9344 9.57405L1.82034 9.57405C1.01727 9.57405 0.366254 8.92303 0.366254 8.11996C0.366255 7.37425 0.927591 6.75964 1.65077 6.67565L1.82034 6.66587L13.9358 6.66587L10.1881 3.39965C9.58281 2.87192 9.5199 1.95339 10.0476 1.34806C10.5348 0.789292 11.3549 0.692707 11.9543 1.09623L12.0992 1.20755L18.804 7.05355L18.9265 7.18195L19.0321 7.32353L19.1359 7.51034L19.2047 7.68972L19.2464 7.86115L19.2596 7.95038C19.2635 7.98402 19.2659 8.01361 19.2675 8.04323Z" fill="#F9FBFF"/>
</svg>
