<svg width="15" height="13" viewBox="0 0 15 13" fill="none" xmlns="http://www.w3.org/2000/svg">
<g clip-path="url(#clip0_1_693)">
<path d="M12.5055 1.66806L10.7981 2.57272L2.55344 6.94006C2.52556 6.71892 2.51154 6.49613 2.51145 6.2731C2.51258 5.38322 2.73723 4.50908 3.16315 3.73728C3.58908 2.96548 4.20149 2.32279 4.93974 1.87287C5.67799 1.42295 6.51645 1.18142 7.37208 1.1722C8.2277 1.16298 9.07079 1.38638 9.81785 1.82029L10.7951 1.30245L10.9409 1.22509C10.0457 0.54933 8.98819 0.144149 7.88538 0.0543268C6.78256 -0.0354952 5.67734 0.193539 4.69186 0.716117C3.70638 1.2387 2.87902 2.03447 2.30122 3.01548C1.72342 3.9965 1.41769 5.12455 1.4178 6.27497C1.4178 6.43386 1.4236 6.59213 1.4352 6.74977C1.45144 6.973 1.40383 7.19625 1.29837 7.39142C1.1929 7.58659 1.03428 7.74495 0.842478 7.84659L0.327148 8.11986V9.3945L1.84434 8.59028L2.33567 8.32949L2.81981 8.07307L11.5114 3.4674L12.4881 2.95018L14.5068 1.88019V0.606174L12.5055 1.66806Z" fill="#FCFCFD"/>
<path d="M14.5068 3.1554L3.31354 9.08249L2.33687 9.60096L0.327148 10.666V11.9394L2.32308 10.8818L4.03044 9.97717L12.2835 5.6036C12.3114 5.8262 12.3254 6.05044 12.3255 6.27492C12.325 7.16583 12.1004 8.0411 11.6741 8.81385C11.2477 9.58659 10.6344 10.2299 9.89513 10.68C9.15582 11.13 8.31617 11.3712 7.45955 11.3794C6.60293 11.3877 5.75912 11.1628 5.01191 10.7271L4.95192 10.7602L3.89246 11.3217C4.78749 11.9975 5.84474 12.4028 6.94738 12.4928C8.05003 12.5828 9.15515 12.3541 10.1406 11.8319C11.1261 11.3097 11.9536 10.5143 12.5316 9.53362C13.1097 8.55295 13.4158 7.42518 13.4162 6.27492C13.4162 6.11458 13.4102 5.95423 13.3988 5.79576C13.3825 5.5726 13.4301 5.34943 13.5354 5.15429C13.6408 4.95915 13.7992 4.80073 13.9909 4.69894L14.5068 4.42567V3.1554Z" fill="#FCFCFD"/>
</g>
<defs>
<clipPath id="clip0_1_693">
<rect width="14.1797" height="12.4781" fill="white" transform="translate(0.327148 0.0358887)"/>
</clipPath>
</defs>
</svg>
