<svg width="24" height="25" viewBox="0 0 24 25" fill="none" xmlns="http://www.w3.org/2000/svg">
<path d="M12.66 3.44672L12.63 3.51672L9.73002 10.2467H6.88002C6.20002 10.2467 5.55002 10.3867 4.96002 10.6367L6.71002 6.45672L6.75002 6.35672L6.82002 6.19672C6.84002 6.13672 6.86002 6.07672 6.89002 6.02672C8.20002 2.99672 9.68002 2.30672 12.66 3.44672Z" stroke="#777E90" stroke-width="1.5" stroke-linecap="round" stroke-linejoin="round"/>
<path d="M18.05 10.4468C17.6 10.3068 17.12 10.2468 16.64 10.2468H9.72998L12.63 3.51678L12.66 3.44678C12.81 3.49678 12.95 3.56678 13.1 3.62678L15.31 4.55678C16.54 5.06678 17.4 5.59678 17.92 6.23678C18.02 6.35678 18.1 6.46678 18.17 6.59678C18.26 6.73678 18.33 6.87678 18.37 7.02678C18.41 7.11678 18.44 7.20678 18.46 7.28678C18.73 8.12678 18.57 9.15678 18.05 10.4468Z" stroke="#777E90" stroke-width="1.5" stroke-linecap="round" stroke-linejoin="round"/>
<path d="M21.5217 15.1269V17.0769C21.5217 17.2769 21.5117 17.4769 21.5017 17.6769C21.3117 21.1669 19.3617 22.9269 15.6617 22.9269H7.86172C7.62172 22.9269 7.38172 22.9069 7.15172 22.8769C3.97172 22.6669 2.27172 20.9669 2.06172 17.7869C2.03172 17.5569 2.01172 17.3169 2.01172 17.0769V15.1269C2.01172 13.1169 3.23172 11.3869 4.97172 10.6369C5.57172 10.3869 6.21172 10.2469 6.89172 10.2469H16.6517C17.1417 10.2469 17.6217 10.3169 18.0617 10.4469C20.0517 11.0569 21.5217 12.9169 21.5217 15.1269Z" stroke="#777E90" stroke-width="1.5" stroke-linecap="round" stroke-linejoin="round"/>
<path d="M6.71 6.45667L4.96 10.6367C3.22 11.3867 2 13.1167 2 15.1267V12.1967C2 9.35667 4.02 6.98667 6.71 6.45667Z" stroke="#777E90" stroke-width="1.5" stroke-linecap="round" stroke-linejoin="round"/>
<path d="M21.5186 12.1962V15.1262C21.5186 12.9262 20.0586 11.0562 18.0586 10.4562C18.5786 9.15624 18.7286 8.13625 18.4786 7.28625C18.4586 7.19625 18.4286 7.10625 18.3886 7.02625C20.2486 7.98625 21.5186 9.95625 21.5186 12.1962Z" stroke="#777E90" stroke-width="1.5" stroke-linecap="round" stroke-linejoin="round"/>
</svg>
