<svg width="186" height="83" viewBox="0 0 186 83" fill="none" xmlns="http://www.w3.org/2000/svg">
<line x1="2.24023" y1="33.0452" x2="184.696" y2="33.0452" stroke="#777E90" stroke-width="0.5"/>
<line x1="2.24023" y1="7.04517" x2="184.696" y2="7.04517" stroke="#777E90" stroke-width="0.5"/>
<line x1="2.24023" y1="59.0452" x2="184.696" y2="59.0452" stroke="#777E90" stroke-width="0.5"/>
<path d="M1.03516 58.6441C51.4422 58.6441 27.4633 25.0318 73.505 22.8532C98.0445 21.692 112.547 8.07316 184.696 15.742" stroke="#A0C8FF" stroke-linecap="round" stroke-linejoin="round"/>
<path d="M6.31176 59.2952C4.99733 59.3405 3.62918 59.3416 2.20361 59.2952H6.31176C39.1132 58.1636 38.4549 29.4759 61.5136 24.2475C86.7513 24.2475 113.383 8.07308 185.053 15.742V59.2951L6.31176 59.2952Z" fill="url(#paint0_linear_1_610)"/>
<line x1="131.873" y1="23.5336" x2="131.873" y2="59.2952" stroke="#422F8A" stroke-opacity="0.87" stroke-dasharray="4.4 4.4"/>
<g filter="url(#filter0_dd_1_610)">
<rect x="121.373" y="3.53357" width="20" height="20" rx="10" fill="url(#paint1_linear_1_610)"/>
<rect x="123.373" y="5.53357" width="16" height="16" rx="8" stroke="white" stroke-width="4"/>
</g>
<path d="M102.131 75.8514V80.9725H101.451V79.3163C101.451 78.6652 101.469 78.0038 101.506 77.3319L100.002 80.828H99.3535L97.873 77.3632C97.9199 77.9543 97.9447 78.6053 97.9473 79.3163V80.9725H97.2676V75.8436H97.9238L99.6895 80.0428L101.475 75.8436L102.131 75.8514ZM106.689 77.4452V80.9725H106.064V80.3475C105.947 80.5663 105.768 80.7421 105.525 80.8749C105.283 81.0051 105.01 81.0702 104.705 81.0702C104.38 81.0702 104.089 80.9934 103.834 80.8397C103.581 80.6835 103.385 80.466 103.244 80.1874C103.104 79.9061 103.033 79.5832 103.033 79.2186C103.033 78.8462 103.106 78.5181 103.252 78.2343C103.4 77.9478 103.604 77.7277 103.861 77.5741C104.119 77.4178 104.416 77.3397 104.752 77.3397C105.051 77.3397 105.316 77.3996 105.545 77.5194C105.774 77.6392 105.952 77.8033 106.08 78.0116L106.139 77.4452H106.689ZM104.85 80.4686C105.196 80.4686 105.476 80.3527 105.689 80.121C105.903 79.8892 106.01 79.578 106.01 79.1874C106.01 78.8098 105.904 78.5077 105.693 78.2811C105.482 78.0546 105.206 77.9413 104.865 77.9413C104.514 77.9413 104.234 78.0572 104.025 78.2889C103.817 78.5207 103.713 78.8254 103.713 79.203C103.713 79.5806 103.817 79.8866 104.025 80.121C104.234 80.3527 104.508 80.4686 104.85 80.4686ZM109.365 77.4139C109.482 77.4139 109.594 77.4244 109.701 77.4452V78.0116C109.641 78.0012 109.558 77.996 109.451 77.996C109.131 77.996 108.883 78.091 108.709 78.2811C108.537 78.4712 108.451 78.7343 108.451 79.0702V80.9725H107.787V77.4452H108.373L108.451 77.9803C108.511 77.7981 108.623 77.6587 108.787 77.5624C108.954 77.4634 109.146 77.4139 109.365 77.4139Z" fill="#777E90"/>
<path d="M3.53711 76.4921V78.0936H5.77539V78.6991H3.53711V80.3319H6.01758V80.9725H2.84961V75.8436H6.01758V76.4921H3.53711ZM8.70898 77.3397C9.11003 77.3397 9.43034 77.4673 9.66992 77.7225C9.90951 77.9751 10.0293 78.3306 10.0293 78.7889V80.9725H9.35742V78.9413C9.35742 78.2746 9.08789 77.9413 8.54883 77.9413C8.25456 77.9413 8.02148 78.0298 7.84961 78.2069C7.68034 78.3814 7.5957 78.6066 7.5957 78.8827V80.9647H6.93164V77.4452H7.48633L7.54883 77.9413C7.6556 77.759 7.81445 77.6132 8.02539 77.5038C8.23633 77.3944 8.46419 77.3397 8.70898 77.3397ZM14.3379 79.9178C14.2572 80.2642 14.0618 80.5428 13.752 80.7538C13.4421 80.9647 13.0801 81.0702 12.666 81.0702C12.3092 81.0702 11.9941 80.9921 11.7207 80.8358C11.4499 80.677 11.2389 80.4569 11.0879 80.1757C10.9395 79.8918 10.8652 79.565 10.8652 79.1952C10.8652 78.828 10.9408 78.5038 11.0918 78.2225C11.2454 77.9387 11.4564 77.7212 11.7246 77.5702C11.9954 77.4165 12.3014 77.3397 12.6426 77.3397C12.9785 77.3397 13.2728 77.4113 13.5254 77.5546C13.778 77.6952 13.9746 77.8918 14.1152 78.1444C14.2585 78.397 14.3301 78.6861 14.3301 79.0116C14.3301 79.1887 14.3197 79.3228 14.2988 79.4139H11.5215C11.5319 79.7499 11.6426 80.0194 11.8535 80.2225C12.0645 80.4231 12.3353 80.5233 12.666 80.5233C12.9108 80.5233 13.1243 80.4686 13.3066 80.3593C13.4915 80.2499 13.6191 80.1027 13.6895 79.9178H14.3379ZM13.6582 78.9335C13.653 78.6184 13.5566 78.3684 13.3691 78.1835C13.1816 77.996 12.9368 77.9022 12.6348 77.9022C12.3145 77.9022 12.0527 77.996 11.8496 78.1835C11.6465 78.3684 11.5397 78.6184 11.5293 78.9335H13.6582Z" fill="#777E90"/>
<path d="M50.8691 76.4843V78.1718H52.916V78.7811H50.8691V80.9725H50.1738V75.8436H53.3066V76.4843H50.8691ZM57.0996 79.9178C57.0189 80.2642 56.8236 80.5428 56.5137 80.7538C56.2038 80.9647 55.8418 81.0702 55.4277 81.0702C55.071 81.0702 54.7559 80.9921 54.4824 80.8358C54.2116 80.677 54.0007 80.4569 53.8496 80.1757C53.7012 79.8918 53.627 79.565 53.627 79.1952C53.627 78.828 53.7025 78.5038 53.8535 78.2225C54.0072 77.9387 54.2181 77.7212 54.4863 77.5702C54.7572 77.4165 55.0632 77.3397 55.4043 77.3397C55.7402 77.3397 56.0345 77.4113 56.2871 77.5546C56.5397 77.6952 56.7363 77.8918 56.877 78.1444C57.0202 78.397 57.0918 78.6861 57.0918 79.0116C57.0918 79.1887 57.0814 79.3228 57.0605 79.4139H54.2832C54.2936 79.7499 54.4043 80.0194 54.6152 80.2225C54.8262 80.4231 55.097 80.5233 55.4277 80.5233C55.6725 80.5233 55.8861 80.4686 56.0684 80.3593C56.2533 80.2499 56.3809 80.1027 56.4512 79.9178H57.0996ZM56.4199 78.9335C56.4147 78.6184 56.3184 78.3684 56.1309 78.1835C55.9434 77.996 55.6986 77.9022 55.3965 77.9022C55.0762 77.9022 54.8145 77.996 54.6113 78.1835C54.4082 78.3684 54.3014 78.6184 54.291 78.9335H56.4199ZM59.8809 77.3397C60.2116 77.3397 60.5059 77.4178 60.7637 77.5741C61.0241 77.7277 61.2272 77.9465 61.373 78.2303C61.5189 78.5116 61.5918 78.8358 61.5918 79.203C61.5918 79.5702 61.5202 79.8957 61.377 80.1796C61.2337 80.4634 61.0319 80.6835 60.7715 80.8397C60.5137 80.9934 60.2194 81.0702 59.8887 81.0702C59.584 81.0702 59.3132 81.0051 59.0762 80.8749C58.8392 80.7421 58.6595 80.5637 58.5371 80.3397L58.4824 80.9725H57.9355V75.4843H58.584V77.9725C58.7064 77.7746 58.8822 77.6197 59.1113 77.5077C59.3405 77.3957 59.597 77.3397 59.8809 77.3397ZM59.7754 80.4686C60.1165 80.4686 60.3926 80.3527 60.6035 80.121C60.8145 79.8892 60.9199 79.5832 60.9199 79.203C60.9199 78.8254 60.8145 78.5207 60.6035 78.2889C60.3926 78.0572 60.1139 77.9413 59.7676 77.9413C59.4212 77.9413 59.1452 78.0533 58.9395 78.2772C58.7363 78.5012 58.6348 78.8046 58.6348 79.1874C58.6348 79.578 58.7376 79.8892 58.9434 80.121C59.1517 80.3527 59.429 80.4686 59.7754 80.4686Z" fill="#777E90"/>
<defs>
<filter id="filter0_dd_1_610" x="116.039" y="0.866903" width="30.6667" height="30.6667" filterUnits="userSpaceOnUse" color-interpolation-filters="sRGB">
<feFlood flood-opacity="0" result="BackgroundImageFix"/>
<feColorMatrix in="SourceAlpha" type="matrix" values="0 0 0 0 0 0 0 0 0 0 0 0 0 0 0 0 0 0 127 0" result="hardAlpha"/>
<feOffset dy="2.66667"/>
<feGaussianBlur stdDeviation="2.66667"/>
<feColorMatrix type="matrix" values="0 0 0 0 0.196487 0 0 0 0 0.196487 0 0 0 0 0.279476 0 0 0 0.06 0"/>
<feBlend mode="multiply" in2="BackgroundImageFix" result="effect1_dropShadow_1_610"/>
<feColorMatrix in="SourceAlpha" type="matrix" values="0 0 0 0 0 0 0 0 0 0 0 0 0 0 0 0 0 0 127 0" result="hardAlpha"/>
<feOffset dy="2.66667"/>
<feGaussianBlur stdDeviation="1.33333"/>
<feColorMatrix type="matrix" values="0 0 0 0 0.196487 0 0 0 0 0.196487 0 0 0 0 0.279476 0 0 0 0.06 0"/>
<feBlend mode="multiply" in2="effect1_dropShadow_1_610" result="effect2_dropShadow_1_610"/>
<feBlend mode="normal" in="SourceGraphic" in2="effect2_dropShadow_1_610" result="shape"/>
</filter>
<linearGradient id="paint0_linear_1_610" x1="440.855" y1="-17.7048" x2="440.855" y2="91.5041" gradientUnits="userSpaceOnUse">
<stop stop-color="#7459D9" stop-opacity="0.1"/>
<stop offset="0.998978" stop-color="white" stop-opacity="0"/>
</linearGradient>
<linearGradient id="paint1_linear_1_610" x1="130.432" y1="33.5336" x2="150.432" y2="15.4146" gradientUnits="userSpaceOnUse">
<stop stop-color="#45AFEE" stop-opacity="0.01"/>
<stop offset="0.0375866" stop-color="#43B1EC" stop-opacity="0.615533"/>
<stop offset="0.0805049" stop-color="#41B3E9" stop-opacity="0.767526"/>
<stop offset="0.146149" stop-color="#3EB7E5"/>
<stop offset="0.747659" stop-color="#23DBBD"/>
<stop offset="0.842081" stop-color="#1EE0B7" stop-opacity="0.852977"/>
<stop offset="0.896184" stop-color="#1CE4B3" stop-opacity="0.768733"/>
<stop offset="0.927591" stop-color="#1BE5B1" stop-opacity="0.144475"/>
<stop offset="1" stop-color="#17EAAC" stop-opacity="0.01"/>
</linearGradient>
</defs>
</svg>
