<svg width="186" height="77" viewBox="0 0 186 77" fill="none" xmlns="http://www.w3.org/2000/svg">
<line x1="2.24023" y1="26.9441" x2="184.696" y2="26.9441" stroke="#777E90" stroke-width="0.5"/>
<line x1="2.24023" y1="0.944092" x2="184.696" y2="0.944092" stroke="#777E90" stroke-width="0.5"/>
<line x1="2.24023" y1="52.9441" x2="184.696" y2="52.9441" stroke="#777E90" stroke-width="0.5"/>
<path d="M1.03516 52.543C51.4422 52.543 72.5216 22.9014 118.563 20.7228C143.103 19.5616 162.762 21.8216 184.696 25.3332" stroke="#A0C8FF" stroke-linecap="round" stroke-linejoin="round"/>
<path d="M115.885 21.2C68.7541 28.6278 40.7908 50.7527 2.20361 53.1942H184.697V25.4423C162.763 21.4088 140.424 19.8662 115.885 21.2Z" fill="url(#paint0_linear_1_623)"/>
<line x1="103.365" y1="26.3472" x2="103.365" y2="53.1942" stroke="#422F8A" stroke-opacity="0.87" stroke-dasharray="4.4 4.4"/>
<g filter="url(#filter0_dd_1_623)">
<rect x="92.8652" y="16.3472" width="20" height="20" rx="10" fill="url(#paint1_linear_1_623)"/>
<rect x="94.8652" y="18.3472" width="16" height="16" rx="8" stroke="white" stroke-width="4"/>
</g>
<path d="M102.131 69.7504V74.8715H101.451V73.2152C101.451 72.5642 101.469 71.9027 101.506 71.2308L100.002 74.7269H99.3535L97.873 71.2621C97.9199 71.8532 97.9447 72.5043 97.9473 73.2152V74.8715H97.2676V69.7426H97.9238L99.6895 73.9418L101.475 69.7426L102.131 69.7504ZM106.689 71.3441V74.8715H106.064V74.2465C105.947 74.4652 105.768 74.641 105.525 74.7738C105.283 74.904 105.01 74.9691 104.705 74.9691C104.38 74.9691 104.089 74.8923 103.834 74.7386C103.581 74.5824 103.385 74.3649 103.244 74.0863C103.104 73.8051 103.033 73.4821 103.033 73.1176C103.033 72.7452 103.106 72.417 103.252 72.1332C103.4 71.8467 103.604 71.6267 103.861 71.473C104.119 71.3168 104.416 71.2386 104.752 71.2386C105.051 71.2386 105.316 71.2985 105.545 71.4183C105.774 71.5381 105.952 71.7022 106.08 71.9105L106.139 71.3441H106.689ZM104.85 74.3676C105.196 74.3676 105.476 74.2517 105.689 74.0199C105.903 73.7881 106.01 73.4769 106.01 73.0863C106.01 72.7087 105.904 72.4066 105.693 72.1801C105.482 71.9535 105.206 71.8402 104.865 71.8402C104.514 71.8402 104.234 71.9561 104.025 72.1879C103.817 72.4196 103.713 72.7243 103.713 73.1019C103.713 73.4795 103.817 73.7855 104.025 74.0199C104.234 74.2517 104.508 74.3676 104.85 74.3676ZM109.365 71.3129C109.482 71.3129 109.594 71.3233 109.701 71.3441V71.9105C109.641 71.9001 109.558 71.8949 109.451 71.8949C109.131 71.8949 108.883 71.9899 108.709 72.1801C108.537 72.3702 108.451 72.6332 108.451 72.9691V74.8715H107.787V71.3441H108.373L108.451 71.8793C108.511 71.697 108.623 71.5577 108.787 71.4613C108.954 71.3623 109.146 71.3129 109.365 71.3129Z" fill="#777E90"/>
<path d="M3.53711 70.391V71.9926H5.77539V72.598H3.53711V74.2308H6.01758V74.8715H2.84961V69.7426H6.01758V70.391H3.53711ZM8.70898 71.2386C9.11003 71.2386 9.43034 71.3663 9.66992 71.6215C9.90951 71.8741 10.0293 72.2295 10.0293 72.6879V74.8715H9.35742V72.8402C9.35742 72.1735 9.08789 71.8402 8.54883 71.8402C8.25456 71.8402 8.02148 71.9288 7.84961 72.1058C7.68034 72.2803 7.5957 72.5056 7.5957 72.7816V74.8636H6.93164V71.3441H7.48633L7.54883 71.8402C7.6556 71.6579 7.81445 71.5121 8.02539 71.4027C8.23633 71.2933 8.46419 71.2386 8.70898 71.2386ZM14.3379 73.8168C14.2572 74.1631 14.0618 74.4418 13.752 74.6527C13.4421 74.8636 13.0801 74.9691 12.666 74.9691C12.3092 74.9691 11.9941 74.891 11.7207 74.7347C11.4499 74.5759 11.2389 74.3558 11.0879 74.0746C10.9395 73.7907 10.8652 73.4639 10.8652 73.0941C10.8652 72.7269 10.9408 72.4027 11.0918 72.1215C11.2454 71.8376 11.4564 71.6202 11.7246 71.4691C11.9954 71.3155 12.3014 71.2386 12.6426 71.2386C12.9785 71.2386 13.2728 71.3103 13.5254 71.4535C13.778 71.5941 13.9746 71.7907 14.1152 72.0433C14.2585 72.2959 14.3301 72.585 14.3301 72.9105C14.3301 73.0876 14.3197 73.2217 14.2988 73.3129H11.5215C11.5319 73.6488 11.6426 73.9183 11.8535 74.1215C12.0645 74.322 12.3353 74.4222 12.666 74.4222C12.9108 74.4222 13.1243 74.3676 13.3066 74.2582C13.4915 74.1488 13.6191 74.0017 13.6895 73.8168H14.3379ZM13.6582 72.8324C13.653 72.5173 13.5566 72.2673 13.3691 72.0824C13.1816 71.8949 12.9368 71.8011 12.6348 71.8011C12.3145 71.8011 12.0527 71.8949 11.8496 72.0824C11.6465 72.2673 11.5397 72.5173 11.5293 72.8324H13.6582Z" fill="#777E90"/>
<path d="M50.8691 70.3832V72.0707H52.916V72.6801H50.8691V74.8715H50.1738V69.7426H53.3066V70.3832H50.8691ZM57.0996 73.8168C57.0189 74.1631 56.8236 74.4418 56.5137 74.6527C56.2038 74.8636 55.8418 74.9691 55.4277 74.9691C55.071 74.9691 54.7559 74.891 54.4824 74.7347C54.2116 74.5759 54.0007 74.3558 53.8496 74.0746C53.7012 73.7907 53.627 73.4639 53.627 73.0941C53.627 72.7269 53.7025 72.4027 53.8535 72.1215C54.0072 71.8376 54.2181 71.6202 54.4863 71.4691C54.7572 71.3155 55.0632 71.2386 55.4043 71.2386C55.7402 71.2386 56.0345 71.3103 56.2871 71.4535C56.5397 71.5941 56.7363 71.7907 56.877 72.0433C57.0202 72.2959 57.0918 72.585 57.0918 72.9105C57.0918 73.0876 57.0814 73.2217 57.0605 73.3129H54.2832C54.2936 73.6488 54.4043 73.9183 54.6152 74.1215C54.8262 74.322 55.097 74.4222 55.4277 74.4222C55.6725 74.4222 55.8861 74.3676 56.0684 74.2582C56.2533 74.1488 56.3809 74.0017 56.4512 73.8168H57.0996ZM56.4199 72.8324C56.4147 72.5173 56.3184 72.2673 56.1309 72.0824C55.9434 71.8949 55.6986 71.8011 55.3965 71.8011C55.0762 71.8011 54.8145 71.8949 54.6113 72.0824C54.4082 72.2673 54.3014 72.5173 54.291 72.8324H56.4199ZM59.8809 71.2386C60.2116 71.2386 60.5059 71.3168 60.7637 71.473C61.0241 71.6267 61.2272 71.8454 61.373 72.1293C61.5189 72.4105 61.5918 72.7347 61.5918 73.1019C61.5918 73.4691 61.5202 73.7946 61.377 74.0785C61.2337 74.3623 61.0319 74.5824 60.7715 74.7386C60.5137 74.8923 60.2194 74.9691 59.8887 74.9691C59.584 74.9691 59.3132 74.904 59.0762 74.7738C58.8392 74.641 58.6595 74.4626 58.5371 74.2386L58.4824 74.8715H57.9355V69.3832H58.584V71.8715C58.7064 71.6735 58.8822 71.5186 59.1113 71.4066C59.3405 71.2946 59.597 71.2386 59.8809 71.2386ZM59.7754 74.3676C60.1165 74.3676 60.3926 74.2517 60.6035 74.0199C60.8145 73.7881 60.9199 73.4821 60.9199 73.1019C60.9199 72.7243 60.8145 72.4196 60.6035 72.1879C60.3926 71.9561 60.1139 71.8402 59.7676 71.8402C59.4212 71.8402 59.1452 71.9522 58.9395 72.1761C58.7363 72.4001 58.6348 72.7035 58.6348 73.0863C58.6348 73.4769 58.7376 73.7881 58.9434 74.0199C59.1517 74.2517 59.429 74.3676 59.7754 74.3676Z" fill="#777E90"/>
<defs>
<filter id="filter0_dd_1_623" x="87.5319" y="13.6805" width="30.6667" height="30.6667" filterUnits="userSpaceOnUse" color-interpolation-filters="sRGB">
<feFlood flood-opacity="0" result="BackgroundImageFix"/>
<feColorMatrix in="SourceAlpha" type="matrix" values="0 0 0 0 0 0 0 0 0 0 0 0 0 0 0 0 0 0 127 0" result="hardAlpha"/>
<feOffset dy="2.66667"/>
<feGaussianBlur stdDeviation="2.66667"/>
<feColorMatrix type="matrix" values="0 0 0 0 0.196487 0 0 0 0 0.196487 0 0 0 0 0.279476 0 0 0 0.06 0"/>
<feBlend mode="multiply" in2="BackgroundImageFix" result="effect1_dropShadow_1_623"/>
<feColorMatrix in="SourceAlpha" type="matrix" values="0 0 0 0 0 0 0 0 0 0 0 0 0 0 0 0 0 0 127 0" result="hardAlpha"/>
<feOffset dy="2.66667"/>
<feGaussianBlur stdDeviation="1.33333"/>
<feColorMatrix type="matrix" values="0 0 0 0 0.196487 0 0 0 0 0.196487 0 0 0 0 0.279476 0 0 0 0.06 0"/>
<feBlend mode="multiply" in2="effect1_dropShadow_1_623" result="effect2_dropShadow_1_623"/>
<feBlend mode="normal" in="SourceGraphic" in2="effect2_dropShadow_1_623" result="shape"/>
</filter>
<linearGradient id="paint0_linear_1_623" x1="440.855" y1="-23.8058" x2="440.855" y2="85.4031" gradientUnits="userSpaceOnUse">
<stop stop-color="#7459D9" stop-opacity="0.1"/>
<stop offset="0.998978" stop-color="white" stop-opacity="0"/>
</linearGradient>
<linearGradient id="paint1_linear_1_623" x1="101.925" y1="46.3472" x2="121.925" y2="28.2282" gradientUnits="userSpaceOnUse">
<stop stop-color="#45AFEE" stop-opacity="0.01"/>
<stop offset="0.0375866" stop-color="#43B1EC" stop-opacity="0.615533"/>
<stop offset="0.0805049" stop-color="#41B3E9" stop-opacity="0.767526"/>
<stop offset="0.146149" stop-color="#3EB7E5"/>
<stop offset="0.747659" stop-color="#23DBBD"/>
<stop offset="0.842081" stop-color="#1EE0B7" stop-opacity="0.852977"/>
<stop offset="0.896184" stop-color="#1CE4B3" stop-opacity="0.768733"/>
<stop offset="0.927591" stop-color="#1BE5B1" stop-opacity="0.144475"/>
<stop offset="1" stop-color="#17EAAC" stop-opacity="0.01"/>
</linearGradient>
</defs>
</svg>
