<svg width="185" height="77" viewBox="0 0 185 77" fill="none" xmlns="http://www.w3.org/2000/svg">
<line x1="2.16699" y1="27.1461" x2="184.622" y2="27.1461" stroke="#777E90" stroke-width="0.5"/>
<line x1="2.16699" y1="1.14612" x2="184.622" y2="1.14612" stroke="#777E90" stroke-width="0.5"/>
<line x1="2.16699" y1="53.1461" x2="184.622" y2="53.1461" stroke="#777E90" stroke-width="0.5"/>
<path d="M0.961914 52.7449C51.3689 52.7449 72.4483 23.1034 118.49 20.9247C143.029 19.7636 157.75 43.2293 184.028 36.6915" stroke="#A0C8FF" stroke-linecap="round" stroke-linejoin="round"/>
<path d="M115.811 21.4019C68.6809 28.8297 40.7176 50.9547 2.13037 53.3961H171.452L182.635 37.7849C158.846 40.571 140.351 20.0682 115.811 21.4019Z" fill="url(#paint0_linear_1_636)"/>
<line x1="114.971" y1="26.5493" x2="114.971" y2="53.3963" stroke="#422F8A" stroke-opacity="0.87" stroke-dasharray="4.4 4.4"/>
<g filter="url(#filter0_dd_1_636)">
<rect x="104.471" y="11.0581" width="20" height="20" rx="10" fill="url(#paint1_linear_1_636)"/>
<rect x="106.471" y="13.0581" width="16" height="16" rx="8" stroke="white" stroke-width="4"/>
</g>
<path d="M102.058 69.9524V75.0735H101.378V73.4172C101.378 72.7662 101.396 72.1047 101.433 71.4329L99.9287 74.929H99.2803L97.7998 71.4641C97.8467 72.0553 97.8714 72.7063 97.874 73.4172V75.0735H97.1943V69.9446H97.8506L99.6162 74.1438L101.401 69.9446L102.058 69.9524ZM106.616 71.5461V75.0735H105.991V74.4485C105.874 74.6672 105.694 74.843 105.452 74.9758C105.21 75.106 104.937 75.1711 104.632 75.1711C104.306 75.1711 104.016 75.0943 103.761 74.9407C103.508 74.7844 103.312 74.567 103.171 74.2883C103.03 74.0071 102.96 73.6842 102.96 73.3196C102.96 72.9472 103.033 72.6191 103.179 72.3352C103.327 72.0487 103.53 71.8287 103.788 71.675C104.046 71.5188 104.343 71.4407 104.679 71.4407C104.978 71.4407 105.243 71.5006 105.472 71.6204C105.701 71.7402 105.879 71.9042 106.007 72.1125L106.065 71.5461H106.616ZM104.776 74.5696C105.123 74.5696 105.403 74.4537 105.616 74.2219C105.83 73.9902 105.937 73.679 105.937 73.2883C105.937 72.9107 105.831 72.6086 105.62 72.3821C105.409 72.1555 105.133 72.0422 104.792 72.0422C104.44 72.0422 104.16 72.1581 103.952 72.3899C103.744 72.6217 103.64 72.9264 103.64 73.304C103.64 73.6816 103.744 73.9875 103.952 74.2219C104.16 74.4537 104.435 74.5696 104.776 74.5696ZM109.292 71.5149C109.409 71.5149 109.521 71.5253 109.628 71.5461V72.1125C109.568 72.1021 109.485 72.0969 109.378 72.0969C109.058 72.0969 108.81 72.192 108.636 72.3821C108.464 72.5722 108.378 72.8352 108.378 73.1711V75.0735H107.714V71.5461H108.3L108.378 72.0813C108.438 71.899 108.55 71.7597 108.714 71.6633C108.881 71.5644 109.073 71.5149 109.292 71.5149Z" fill="#777E90"/>
<path d="M3.46387 70.593V72.1946H5.70215V72.8H3.46387V74.4329H5.94434V75.0735H2.77637V69.9446H5.94434V70.593H3.46387ZM8.63574 71.4407C9.03678 71.4407 9.3571 71.5683 9.59668 71.8235C9.83626 72.0761 9.95605 72.4316 9.95605 72.8899V75.0735H9.28418V73.0422C9.28418 72.3756 9.01465 72.0422 8.47559 72.0422C8.18132 72.0422 7.94824 72.1308 7.77637 72.3079C7.6071 72.4823 7.52246 72.7076 7.52246 72.9836V75.0657H6.8584V71.5461H7.41309L7.47559 72.0422C7.58236 71.8599 7.74121 71.7141 7.95215 71.6047C8.16309 71.4954 8.39095 71.4407 8.63574 71.4407ZM14.2646 74.0188C14.1839 74.3652 13.9886 74.6438 13.6787 74.8547C13.3688 75.0657 13.0068 75.1711 12.5928 75.1711C12.236 75.1711 11.9209 75.093 11.6475 74.9368C11.3766 74.7779 11.1657 74.5579 11.0146 74.2766C10.8662 73.9928 10.792 73.6659 10.792 73.2961C10.792 72.929 10.8675 72.6047 11.0186 72.3235C11.1722 72.0396 11.3831 71.8222 11.6514 71.6711C11.9222 71.5175 12.2282 71.4407 12.5693 71.4407C12.9053 71.4407 13.1995 71.5123 13.4521 71.6555C13.7048 71.7961 13.9014 71.9928 14.042 72.2454C14.1852 72.498 14.2568 72.787 14.2568 73.1125C14.2568 73.2896 14.2464 73.4237 14.2256 73.5149H11.4482C11.4587 73.8508 11.5693 74.1204 11.7803 74.3235C11.9912 74.524 12.262 74.6243 12.5928 74.6243C12.8376 74.6243 13.0511 74.5696 13.2334 74.4602C13.4183 74.3508 13.5459 74.2037 13.6162 74.0188H14.2646ZM13.585 73.0344C13.5798 72.7193 13.4834 72.4693 13.2959 72.2844C13.1084 72.0969 12.8636 72.0032 12.5615 72.0032C12.2412 72.0032 11.9795 72.0969 11.7764 72.2844C11.5732 72.4693 11.4665 72.7193 11.4561 73.0344H13.585Z" fill="#777E90"/>
<path d="M50.7959 70.5852V72.2727H52.8428V72.8821H50.7959V75.0735H50.1006V69.9446H53.2334V70.5852H50.7959ZM57.0264 74.0188C56.9456 74.3652 56.7503 74.6438 56.4404 74.8547C56.1305 75.0657 55.7686 75.1711 55.3545 75.1711C54.9977 75.1711 54.6826 75.093 54.4092 74.9368C54.1383 74.7779 53.9274 74.5579 53.7764 74.2766C53.6279 73.9928 53.5537 73.6659 53.5537 73.2961C53.5537 72.929 53.6292 72.6047 53.7803 72.3235C53.9339 72.0396 54.1449 71.8222 54.4131 71.6711C54.6839 71.5175 54.9899 71.4407 55.3311 71.4407C55.667 71.4407 55.9613 71.5123 56.2139 71.6555C56.4665 71.7961 56.6631 71.9928 56.8037 72.2454C56.9469 72.498 57.0186 72.787 57.0186 73.1125C57.0186 73.2896 57.0081 73.4237 56.9873 73.5149H54.21C54.2204 73.8508 54.3311 74.1204 54.542 74.3235C54.7529 74.524 55.0238 74.6243 55.3545 74.6243C55.5993 74.6243 55.8128 74.5696 55.9951 74.4602C56.18 74.3508 56.3076 74.2037 56.3779 74.0188H57.0264ZM56.3467 73.0344C56.3415 72.7193 56.2451 72.4693 56.0576 72.2844C55.8701 72.0969 55.6253 72.0032 55.3232 72.0032C55.0029 72.0032 54.7412 72.0969 54.5381 72.2844C54.335 72.4693 54.2282 72.7193 54.2178 73.0344H56.3467ZM59.8076 71.4407C60.1383 71.4407 60.4326 71.5188 60.6904 71.675C60.9508 71.8287 61.154 72.0474 61.2998 72.3313C61.4456 72.6125 61.5186 72.9368 61.5186 73.304C61.5186 73.6711 61.4469 73.9967 61.3037 74.2805C61.1605 74.5644 60.9587 74.7844 60.6982 74.9407C60.4404 75.0943 60.1462 75.1711 59.8154 75.1711C59.5107 75.1711 59.2399 75.106 59.0029 74.9758C58.766 74.843 58.5863 74.6646 58.4639 74.4407L58.4092 75.0735H57.8623V69.5852H58.5107V72.0735C58.6331 71.8756 58.8089 71.7206 59.0381 71.6086C59.2673 71.4967 59.5238 71.4407 59.8076 71.4407ZM59.7021 74.5696C60.0433 74.5696 60.3193 74.4537 60.5303 74.2219C60.7412 73.9902 60.8467 73.6842 60.8467 73.304C60.8467 72.9264 60.7412 72.6217 60.5303 72.3899C60.3193 72.1581 60.0407 72.0422 59.6943 72.0422C59.348 72.0422 59.0719 72.1542 58.8662 72.3782C58.6631 72.6021 58.5615 72.9055 58.5615 73.2883C58.5615 73.679 58.6644 73.9902 58.8701 74.2219C59.0785 74.4537 59.3558 74.5696 59.7021 74.5696Z" fill="#777E90"/>
<defs>
<filter id="filter0_dd_1_636" x="99.1373" y="8.39144" width="30.6667" height="30.6667" filterUnits="userSpaceOnUse" color-interpolation-filters="sRGB">
<feFlood flood-opacity="0" result="BackgroundImageFix"/>
<feColorMatrix in="SourceAlpha" type="matrix" values="0 0 0 0 0 0 0 0 0 0 0 0 0 0 0 0 0 0 127 0" result="hardAlpha"/>
<feOffset dy="2.66667"/>
<feGaussianBlur stdDeviation="2.66667"/>
<feColorMatrix type="matrix" values="0 0 0 0 0.196487 0 0 0 0 0.196487 0 0 0 0 0.279476 0 0 0 0.06 0"/>
<feBlend mode="multiply" in2="BackgroundImageFix" result="effect1_dropShadow_1_636"/>
<feColorMatrix in="SourceAlpha" type="matrix" values="0 0 0 0 0 0 0 0 0 0 0 0 0 0 0 0 0 0 127 0" result="hardAlpha"/>
<feOffset dy="2.66667"/>
<feGaussianBlur stdDeviation="1.33333"/>
<feColorMatrix type="matrix" values="0 0 0 0 0.196487 0 0 0 0 0.196487 0 0 0 0 0.279476 0 0 0 0.06 0"/>
<feBlend mode="multiply" in2="effect1_dropShadow_1_636" result="effect2_dropShadow_1_636"/>
<feBlend mode="normal" in="SourceGraphic" in2="effect2_dropShadow_1_636" result="shape"/>
</filter>
<linearGradient id="paint0_linear_1_636" x1="440.782" y1="-23.6038" x2="440.782" y2="85.6051" gradientUnits="userSpaceOnUse">
<stop stop-color="#7459D9" stop-opacity="0.1"/>
<stop offset="0.998978" stop-color="white" stop-opacity="0"/>
</linearGradient>
<linearGradient id="paint1_linear_1_636" x1="113.53" y1="41.0581" x2="133.53" y2="22.9391" gradientUnits="userSpaceOnUse">
<stop stop-color="#45AFEE" stop-opacity="0.01"/>
<stop offset="0.0375866" stop-color="#43B1EC" stop-opacity="0.615533"/>
<stop offset="0.0805049" stop-color="#41B3E9" stop-opacity="0.767526"/>
<stop offset="0.146149" stop-color="#3EB7E5"/>
<stop offset="0.747659" stop-color="#23DBBD"/>
<stop offset="0.842081" stop-color="#1EE0B7" stop-opacity="0.852977"/>
<stop offset="0.896184" stop-color="#1CE4B3" stop-opacity="0.768733"/>
<stop offset="0.927591" stop-color="#1BE5B1" stop-opacity="0.144475"/>
<stop offset="1" stop-color="#17EAAC" stop-opacity="0.01"/>
</linearGradient>
</defs>
</svg>
