<svg width="35" height="35" viewBox="0 0 35 35" fill="none" xmlns="http://www.w3.org/2000/svg">
<path d="M34.2661 17.6917C34.2661 27.08 26.6544 34.6917 17.2661 34.6917C7.8778 34.6917 0.266113 27.08 0.266113 17.6917C0.266113 8.30333 7.8778 0.69165 17.2661 0.69165C26.6564 0.69165 34.2661 8.30333 34.2661 17.6917Z" fill="#2081E2"/>
<path d="M8.6532 18.2629L8.72654 18.1476L13.1489 11.2293C13.2135 11.128 13.3655 11.1385 13.4144 11.2485C14.1532 12.9043 14.7907 14.9635 14.4921 16.2456C14.3646 16.773 14.0152 17.4874 13.6222 18.1476C13.5716 18.2437 13.5157 18.338 13.4563 18.4288C13.4284 18.4707 13.3812 18.4952 13.3305 18.4952H8.78243C8.66017 18.4952 8.58856 18.3624 8.6532 18.2629Z" fill="white"/>
<path d="M28.3652 19.5484V20.6435C28.3652 20.7064 28.3268 20.7623 28.2709 20.7868C27.9286 20.9335 26.7566 21.4714 26.2693 22.1491C25.0257 23.88 24.0756 26.3549 21.9517 26.3549H13.0913C9.95093 26.3549 7.40613 23.8014 7.40613 20.6505V20.5492C7.40613 20.4654 7.47423 20.3973 7.55807 20.3973H12.4975C12.5952 20.3973 12.6668 20.4881 12.6581 20.5841C12.6232 20.9055 12.6826 21.2339 12.8345 21.5325C13.128 22.1282 13.7358 22.5002 14.3925 22.5002H16.8377V20.5912H14.4204C14.2964 20.5912 14.2231 20.4479 14.2947 20.3466C14.3209 20.3064 14.3506 20.2645 14.382 20.2174C14.6108 19.8925 14.9374 19.3878 15.2623 18.8131C15.4841 18.4254 15.6989 18.0114 15.8719 17.5958C15.9068 17.5206 15.9347 17.4438 15.9627 17.3687C16.0098 17.2359 16.0588 17.1119 16.0937 16.9879C16.1286 16.8831 16.1565 16.7731 16.1845 16.67C16.2666 16.3172 16.3015 15.9435 16.3015 15.5557C16.3015 15.4038 16.2945 15.2448 16.2806 15.0929C16.2736 14.927 16.2526 14.761 16.2316 14.5951C16.2177 14.4484 16.1915 14.3034 16.1635 14.1514C16.1286 13.9296 16.0797 13.7096 16.0238 13.4877L16.0046 13.4039C15.9627 13.2519 15.9278 13.107 15.8789 12.9551C15.7409 12.4782 15.5819 12.0136 15.4142 11.5787C15.3531 11.4058 15.2832 11.2399 15.2134 11.074C15.1104 10.8242 15.0055 10.5972 14.9095 10.3823C14.8606 10.2845 14.8187 10.1954 14.7767 10.1046C14.7296 10.0015 14.6807 9.89849 14.6318 9.80071C14.5969 9.7256 14.5567 9.65573 14.5287 9.58586L14.2301 9.03394C14.1881 8.95883 14.258 8.86975 14.3401 8.89247L16.209 9.39896H16.2142C16.2177 9.39896 16.2194 9.40073 16.2212 9.40073L16.4674 9.46883L16.7382 9.54571L16.8377 9.57362V8.46281C16.8377 7.92659 17.2674 7.4917 17.7984 7.4917C18.0638 7.4917 18.3049 7.59999 18.4778 7.77638C18.6507 7.95281 18.759 8.19383 18.759 8.46281V10.1116L18.9581 10.1675C18.9738 10.1727 18.9895 10.1797 19.0035 10.1902C19.0524 10.2269 19.1223 10.281 19.2113 10.3474C19.2812 10.4033 19.3563 10.4714 19.4471 10.5413C19.627 10.6862 19.8419 10.8731 20.0777 11.0879C20.1405 11.1421 20.2017 11.198 20.2576 11.2539C20.5615 11.5368 20.9021 11.8687 21.2269 12.2354C21.3177 12.3385 21.4068 12.4433 21.4976 12.5533C21.5884 12.6651 21.6845 12.7751 21.7683 12.8852C21.8784 13.0319 21.9972 13.1838 22.1002 13.3428C22.1491 13.4179 22.205 13.4947 22.2522 13.5698C22.3849 13.7707 22.5019 13.9786 22.6137 14.1864C22.6609 14.2825 22.7098 14.3872 22.7517 14.4903C22.8757 14.768 22.9735 15.051 23.0364 15.3339C23.0556 15.395 23.0696 15.4614 23.0766 15.5208V15.5348C23.0975 15.6186 23.1045 15.7077 23.1115 15.7985C23.1394 16.0884 23.1255 16.3783 23.0626 16.67C23.0364 16.7941 23.0015 16.9111 22.9595 17.0351C22.9176 17.1539 22.8757 17.2779 22.8216 17.3949C22.7168 17.6376 22.5927 17.8804 22.446 18.1075C22.3989 18.1913 22.343 18.2804 22.2871 18.3643C22.2259 18.4533 22.1631 18.5371 22.1072 18.6193C22.0303 18.724 21.9483 18.8341 21.8644 18.9319C21.7893 19.0349 21.7125 19.138 21.6286 19.2288C21.5116 19.3668 21.3998 19.4978 21.2828 19.6235C21.213 19.7056 21.1378 19.7895 21.061 19.8646C20.9859 19.9484 20.909 20.0235 20.8392 20.0934C20.7222 20.2104 20.6243 20.3012 20.5422 20.3763L20.3501 20.5527C20.3222 20.5772 20.2855 20.5912 20.2471 20.5912H18.759V22.5002H20.6313C21.0505 22.5002 21.4487 22.3517 21.7701 22.0792C21.8801 21.9832 22.3605 21.5675 22.9281 20.9405C22.9473 20.9195 22.9718 20.9038 22.9997 20.8968L28.1714 19.4017C28.2674 19.3738 28.3652 19.4471 28.3652 19.5484Z" fill="white"/>
</svg>
